<?xml version="1.0" standalone="no"?>
<!DOCTYPE svg PUBLIC "-//W3C//DTD SVG 20010904//EN"
 "http://www.w3.org/TR/2001/REC-SVG-20010904/DTD/svg10.dtd">
<svg version="1.0" xmlns="http://www.w3.org/2000/svg"
 width="32" height="32" viewBox="0 0 2816 1536"
 preserveAspectRatio="xMidYMid meet">

<g transform="translate(0.000000,1536.000000) scale(0.100000,-0.100000)"
fill="#FFFFFF" stroke="none">
<path d="M16896 11639 c-325 -18 -528 -63 -848 -185 -193 -74 -360 -187 -525
-356 -96 -98 -155 -183 -215 -308 -36 -75 -78 -202 -78 -237 0 -10 -9 -54 -20
-98 -76 -307 60 -717 336 -1014 110 -118 297 -235 471 -294 119 -40 113 -21
60 -206 -26 -89 -58 -179 -72 -201 -14 -22 -62 -84 -107 -137 -87 -103 -92
-122 -32 -133 92 -17 377 69 558 169 79 43 289 176 332 210 25 20 38 21 218
21 361 1 614 58 1006 227 47 21 107 50 133 65 26 15 53 28 59 28 24 0 128 68
197 129 120 106 190 196 253 323 120 242 162 412 155 625 -2 76 -7 149 -11
163 -3 14 -11 48 -16 75 -6 28 -14 61 -19 75 -5 14 -24 65 -41 113 -111 308
-346 560 -676 725 -341 170 -716 244 -1118 221z m329 -464 c313 -47 610 -172
769 -324 90 -86 139 -154 202 -277 78 -154 102 -315 68 -453 -34 -134 -86
-224 -215 -370 -129 -146 -247 -223 -514 -334 -228 -95 -320 -116 -544 -124
l-164 -6 -117 -111 c-108 -104 -326 -286 -352 -295 -13 -4 -10 5 27 103 14 38
33 111 42 162 18 111 10 160 -39 237 -35 55 -82 85 -216 139 -230 93 -398 276
-473 518 -21 64 -24 95 -23 215 0 132 2 145 32 222 49 128 85 192 155 274 159
185 466 347 782 410 146 29 434 36 580 14z"/>
<path d="M11020 9714 c-135 -28 -208 -68 -306 -165 -59 -57 -105 -132 -128
-206 -11 -34 12 -29 74 13 164 113 290 70 393 -132 25 -49 107 -262 114 -295
3 -18 0 -36 -8 -47 -23 -27 -44 -72 -69 -142 -12 -36 -37 -106 -56 -155 -42
-117 -125 -450 -189 -759 -9 -44 -32 -133 -51 -200 -20 -66 -53 -192 -75 -281
-56 -225 -70 -254 -83 -177 -20 107 -122 436 -162 517 -55 111 -186 205 -287
205 -117 0 -181 -44 -272 -184 -177 -275 -309 -366 -568 -395 -53 -6 -133 -11
-177 -11 -58 0 -81 -3 -78 -12 7 -21 111 -67 213 -95 86 -24 119 -27 235 -27
118 0 147 3 229 28 184 54 250 95 339 209 l46 61 14 -55 c7 -30 31 -112 53
-183 21 -70 39 -134 39 -140 0 -26 72 -266 106 -354 51 -131 111 -195 231
-247 49 -21 106 -40 129 -43 51 -5 137 30 163 67 10 14 31 78 46 141 15 63 43
169 62 235 65 219 83 299 107 460 14 88 32 210 41 270 10 61 25 162 34 225 19
128 24 125 41 -30 12 -107 39 -274 66 -410 131 -645 175 -826 254 -1050 29
-80 70 -197 92 -260 22 -63 66 -162 98 -220 55 -101 59 -112 89 -275 17 -93
43 -242 56 -330 50 -313 84 -405 181 -494 65 -60 123 -81 234 -88 159 -9 329
48 424 143 69 69 82 106 90 254 3 69 12 180 18 248 10 104 14 122 28 116 8 -3
36 -9 61 -11 57 -6 105 16 182 87 58 53 97 123 210 375 89 198 135 584 101
841 -13 98 -13 104 10 185 14 46 30 104 36 128 6 23 14 41 16 38 9 -8 31 -117
48 -232 9 -60 32 -189 51 -285 19 -96 50 -258 70 -360 65 -333 68 -346 172
-665 53 -162 105 -300 138 -365 75 -146 241 -328 346 -378 186 -89 373 -82
540 19 83 50 223 203 321 351 68 102 204 367 258 503 36 92 177 502 250 730
32 99 93 277 135 395 42 118 96 271 119 340 62 181 159 380 185 380 17 0 32
-59 65 -243 19 -105 38 -214 42 -242 16 -119 112 -353 175 -429 66 -78 178
-98 303 -52 124 45 155 85 202 261 49 185 158 475 179 475 2 0 13 -21 24 -46
29 -65 104 -167 148 -202 65 -50 103 -65 168 -66 71 0 116 20 283 123 l113 70
247 -2 c224 -1 255 1 327 20 44 12 117 26 161 32 75 9 343 77 406 102 47 19
45 50 -5 97 -35 33 -190 58 -443 72 -115 6 -249 15 -299 21 -172 18 -354 22
-412 9 -79 -17 -176 -63 -245 -115 -33 -25 -64 -45 -69 -45 -5 0 -31 46 -57
103 -81 168 -156 235 -276 244 -110 9 -195 -35 -273 -141 -49 -66 -183 -329
-183 -359 0 -11 -6 -17 -12 -15 -8 3 -20 50 -31 119 -68 440 -110 569 -226
692 -98 103 -187 147 -302 147 -75 0 -140 -21 -228 -74 -161 -96 -287 -243
-364 -426 -19 -47 -60 -137 -90 -200 -30 -63 -67 -142 -82 -174 -32 -69 -99
-260 -191 -541 -95 -289 -187 -506 -380 -900 -60 -121 -133 -235 -150 -235
-22 0 -115 215 -160 370 -25 85 -60 205 -79 265 -33 105 -65 225 -65 240 0 4
9 5 20 2 13 -3 23 1 29 11 11 23 53 293 102 657 10 77 30 214 44 305 28 181
55 369 80 555 9 66 20 124 24 128 4 4 11 -20 14 -55 71 -719 134 -1022 234
-1121 37 -37 106 -67 155 -67 108 0 163 88 228 365 33 143 69 352 62 360 -6 6
-95 -158 -130 -240 -33 -77 -53 -108 -63 -98 -7 7 -47 307 -64 483 -45 462
-86 704 -139 823 -81 184 -312 211 -396 47 -53 -103 -190 -725 -280 -1265 -12
-71 -25 -138 -29 -149 -4 -12 -14 29 -25 110 -35 256 -95 432 -191 562 -44 60
-53 80 -59 129 -3 32 -20 126 -36 208 -16 83 -36 200 -44 260 -18 134 -36 195
-75 257 -38 60 -129 131 -208 163 -108 43 -246 31 -333 -30 -56 -39 -65 -63
-161 -430 -21 -82 -64 -240 -94 -350 -30 -110 -77 -285 -104 -390 -27 -104
-81 -282 -120 -395 -40 -113 -90 -268 -112 -345 -23 -77 -46 -156 -52 -175
l-10 -35 -14 33 c-15 37 -93 340 -148 577 -39 168 -70 351 -80 468 -3 44 -21
134 -40 200 -90 318 -108 384 -149 553 -53 220 -97 321 -182 414 -53 60 -86
107 -228 333 -77 123 -238 266 -361 321 -135 61 -264 82 -365 60z m2335 -1935
l15 -117 -66 -188 c-36 -104 -92 -268 -124 -364 -50 -151 -130 -372 -210 -582
-12 -32 -26 -58 -31 -58 -6 0 -8 8 -5 18 2 9 7 37 11 62 3 25 13 65 21 90 15
47 53 209 105 445 16 77 43 194 59 260 16 66 57 237 91 380 34 143 69 271 77
285 16 25 16 24 28 -45 7 -38 20 -122 29 -186z"/>
</g>
</svg>
